<?xml version="1.0" encoding="UTF-8"?><svg id="a" xmlns="http://www.w3.org/2000/svg" viewBox="0 0 450 450"><defs><style>.b{fill:#cfebeb;}.c{fill:#60827e;}</style></defs><g><circle class="c" cx="121.22" cy="426.83" r="19.11"/><path class="c" d="M121.22,379.75s-20.82,39.18-19.11,47.08,36.48,8.5,38.22,0c1.75-8.5-19.11-47.08-19.11-47.08Z"/></g><g><circle class="c" cx="217.16" cy="389.62" r="19.11"/><path class="c" d="M217.16,342.54s-20.82,39.18-19.11,47.08c1.71,7.9,36.48,8.5,38.22,0s-19.11-47.08-19.11-47.08Z"/></g><g><circle class="c" cx="40.33" cy="370.09" r="19.11"/><path class="c" d="M40.33,323.01s-20.82,39.18-19.11,47.08c1.71,7.9,36.48,8.5,38.22,0s-19.11-47.08-19.11-47.08Z"/></g><g><circle class="c" cx="330.59" cy="402.58" r="19.11"/><path class="c" d="M330.59,355.5s-20.82,39.18-19.11,47.08c1.71,7.9,36.48,8.5,38.22,0s-19.11-47.08-19.11-47.08Z"/></g><g><circle class="c" cx="402.39" cy="336.39" r="19.11"/><path class="c" d="M402.39,289.31s-20.82,39.18-19.11,47.08c1.71,7.9,36.48,8.5,38.22,0s-19.11-47.08-19.11-47.08Z"/></g><g><circle class="b" cx="195.03" cy="110.7" r="108.35"/><circle class="b" cx="140.43" cy="217.68" r="138.43"/><circle class="b" cx="324.44" cy="202.2" r="122.96"/><circle class="b" cx="256.3" cy="283.68" r="93.51"/></g></svg>