<?xml version="1.0" encoding="UTF-8"?><svg id="a" xmlns="http://www.w3.org/2000/svg" viewBox="0 0 450 450"><defs><style>.b{fill:#f4db72;}.c{fill:#efd274;}.d{fill:#cfebeb;}.e{fill:#60827e;}</style></defs><g><circle class="e" cx="121.52" cy="427.68" r="19.11"/><path class="e" d="M121.52,380.6s-20.82,39.18-19.11,47.08,36.48,8.5,38.22,0c1.75-8.5-19.11-47.08-19.11-47.08Z"/></g><g><circle class="e" cx="217.47" cy="390.47" r="19.11"/><path class="e" d="M217.47,343.4s-20.82,39.18-19.11,47.08c1.71,7.9,36.48,8.5,38.22,0s-19.11-47.08-19.11-47.08Z"/></g><g><circle class="e" cx="40.64" cy="370.95" r="19.11"/><path class="e" d="M40.64,323.87s-20.82,39.18-19.11,47.08c1.71,7.9,36.48,8.5,38.22,0s-19.11-47.08-19.11-47.08Z"/></g><g><circle class="e" cx="330.9" cy="403.43" r="19.11"/><path class="e" d="M330.9,356.35s-20.82,39.18-19.11,47.08c1.71,7.9,36.48,8.5,38.22,0s-19.11-47.08-19.11-47.08Z"/></g><g><circle class="e" cx="402.69" cy="337.24" r="19.11"/><path class="e" d="M402.69,290.16s-20.82,39.18-19.11,47.08c1.71,7.9,36.48,8.5,38.22,0s-19.11-47.08-19.11-47.08Z"/></g><g><circle class="d" cx="195.33" cy="111.55" r="108.35"/><circle class="d" cx="140.74" cy="218.53" r="138.43"/><circle class="d" cx="324.74" cy="203.05" r="122.96"/><circle class="d" cx="256.6" cy="284.53" r="93.51"/></g><polygon class="b" points="340.15 152.69 250.86 273.9 312.23 301.14 241.93 433.12 381.64 290.43 314.27 259.94 340.15 152.69"/><polygon class="c" points="340.15 152.69 250.86 273.9 312.23 301.14 241.93 433.12 381.64 290.43 314.27 259.94 340.15 152.69"/><polygon class="b" points="326.11 296.36 266.29 269.81 318.8 198.53 302.61 265.63 364.5 293.65 283.47 376.4 326.11 296.36"/></svg>